<?xml version="1.0" encoding="UTF-8" standalone="no"?><!DOCTYPE svg PUBLIC "-//W3C//DTD SVG 1.1//EN" "http://www.w3.org/Graphics/SVG/1.1/DTD/svg11.dtd"><svg width="100%" height="100%" viewBox="0 0 450 450" version="1.1" xmlns="http://www.w3.org/2000/svg" xmlns:xlink="http://www.w3.org/1999/xlink" xml:space="preserve" style="fill-rule:evenodd;clip-rule:evenodd;stroke-linejoin:round;stroke-miterlimit:1.41421;"><g id="Idea_1"><g id="Layer_1"><path d="M169.086,412.058c-30.401,-0.089 -64.819,-21.599 -81.903,-51.122l-52.602,-91.553l-0.241,-0.458c-6.647,-12.917 -9.92,-27.725 -9.679,-43.999c-0.241,-16.27 3.032,-31.07 9.679,-44.009l0.241,-0.441l52.37,-91.115c13.735,-23.754 43.185,-51.418 81.04,-51.418l113.645,0c35.446,0 66.902,26.947 82.348,53.657l51.431,88.929l0.24,0.473c6.662,12.925 9.92,27.73 9.684,43.999c0.236,16.275 -3.022,31.075 -9.684,44l-0.25,0.485l-52.713,91.017c-14.314,24.746 -45.433,51.448 -79.904,51.555l-0.031,0l-113.671,0Z" style="fill:#fff;fill-rule:nonzero;"/><g><clipPath id="_clip1"><path d="M100.548,94.62l-54.489,94.797c-5.347,10.375 -7.823,22.183 -7.582,35.5c-0.241,13.345 2.235,25.153 7.582,35.531l54.694,95.181c13.108,22.659 40.829,41.941 65.799,42.023l118.787,0c24.965,-0.082 50.905,-20.22 63.782,-42.482l54.823,-94.65c5.352,-10.379 7.818,-22.187 7.583,-35.518c0.235,-13.33 -2.231,-25.138 -7.583,-35.509l-53.475,-92.476c-12.613,-21.805 -38.558,-44.659 -66.266,-44.659l-118.795,0c-27.717,-0.001 -52.09,20.186 -64.86,42.262Z"/></clipPath><g clip-path="url(#_clip1)"><rect x="18.851" y="40.374" width="397" height="369" style="fill:#15bbee;"/></g><clipPath id="_clip2"><path d="M100.548,94.62l-54.489,94.797c-5.347,10.375 -7.823,22.183 -7.582,35.5c-0.241,13.345 2.235,25.153 7.582,35.531l54.694,95.181c13.108,22.659 40.829,41.941 65.799,42.023l118.787,0c24.965,-0.082 50.905,-20.22 63.782,-42.482l54.823,-94.65c5.352,-10.379 7.818,-22.187 7.583,-35.518c0.235,-13.33 -2.231,-25.138 -7.583,-35.509l-53.475,-92.476c-12.613,-21.805 -38.558,-44.659 -66.266,-44.659l-118.795,0c-27.717,-0.001 -52.09,20.186 -64.86,42.262Z"/></clipPath><g clip-path="url(#_clip2)"><path d="M25.15,224.943l66.556,0l-33.277,-57.517l-33.279,57.517Z" style="fill:#15bbee;fill-rule:nonzero;"/></g><clipPath id="_clip3"><path d="M100.548,94.62l-54.489,94.797c-5.347,10.375 -7.823,22.183 -7.582,35.5c-0.241,13.345 2.235,25.153 7.582,35.531l54.694,95.181c13.108,22.659 40.829,41.941 65.799,42.023l118.787,0c24.965,-0.082 50.905,-20.22 63.782,-42.482l54.823,-94.65c5.352,-10.379 7.818,-22.187 7.583,-35.518c0.235,-13.33 -2.231,-25.138 -7.583,-35.509l-53.475,-92.476c-12.613,-21.805 -38.558,-44.659 -66.266,-44.659l-118.795,0c-27.717,-0.001 -52.09,20.186 -64.86,42.262Z"/></clipPath><g clip-path="url(#_clip3)"><path d="M58.429,282.451l66.546,0l-33.269,-57.517l-33.277,57.517Z" style="fill:#15bbee;fill-rule:nonzero;"/></g><clipPath id="_clip4"><path d="M100.548,94.62l-54.489,94.797c-5.347,10.375 -7.823,22.183 -7.582,35.5c-0.241,13.345 2.235,25.153 7.582,35.531l54.694,95.181c13.108,22.659 40.829,41.941 65.799,42.023l118.787,0c24.965,-0.082 50.905,-20.22 63.782,-42.482l54.823,-94.65c5.352,-10.379 7.818,-22.187 7.583,-35.518c0.235,-13.33 -2.231,-25.138 -7.583,-35.509l-53.475,-92.476c-12.613,-21.805 -38.558,-44.659 -66.266,-44.659l-118.795,0c-27.717,-0.001 -52.09,20.186 -64.86,42.262Z"/></clipPath><g clip-path="url(#_clip4)"><path d="M191.531,397.494l66.55,0l-33.277,-57.512l-33.273,57.512Z" style="fill:#15bbee;fill-rule:nonzero;"/></g><clipPath id="_clip5"><path d="M100.548,94.62l-54.489,94.797c-5.347,10.375 -7.823,22.183 -7.582,35.5c-0.241,13.345 2.235,25.153 7.582,35.531l54.694,95.181c13.108,22.659 40.829,41.941 65.799,42.023l118.787,0c24.965,-0.082 50.905,-20.22 63.782,-42.482l54.823,-94.65c5.352,-10.379 7.818,-22.187 7.583,-35.518c0.235,-13.33 -2.231,-25.138 -7.583,-35.509l-53.475,-92.476c-12.613,-21.805 -38.558,-44.659 -66.266,-44.659l-118.795,0c-27.717,-0.001 -52.09,20.186 -64.86,42.262Z"/></clipPath><g clip-path="url(#_clip5)"><path d="M58.429,167.404l66.546,0l-33.269,-57.512l-33.277,57.512Z" style="fill:#98daf8;fill-rule:nonzero;"/></g><clipPath id="_clip6"><path d="M100.548,94.62l-54.489,94.797c-5.347,10.375 -7.823,22.183 -7.582,35.5c-0.241,13.345 2.235,25.153 7.582,35.531l54.694,95.181c13.108,22.659 40.829,41.941 65.799,42.023l118.787,0c24.965,-0.082 50.905,-20.22 63.782,-42.482l54.823,-94.65c5.352,-10.379 7.818,-22.187 7.583,-35.518c0.235,-13.33 -2.231,-25.138 -7.583,-35.509l-53.475,-92.476c-12.613,-21.805 -38.558,-44.659 -66.266,-44.659l-118.795,0c-27.717,-0.001 -52.09,20.186 -64.86,42.262Z"/></clipPath><g clip-path="url(#_clip6)"><path d="M91.706,224.934l66.546,0l-33.277,-57.517l-33.269,57.517Z" style="fill:#98daf8;fill-rule:nonzero;"/></g><clipPath id="_clip7"><path d="M100.548,94.62l-54.489,94.797c-5.347,10.375 -7.823,22.183 -7.582,35.5c-0.241,13.345 2.235,25.153 7.582,35.531l54.694,95.181c13.108,22.659 40.829,41.941 65.799,42.023l118.787,0c24.965,-0.082 50.905,-20.22 63.782,-42.482l54.823,-94.65c5.352,-10.379 7.818,-22.187 7.583,-35.518c0.235,-13.33 -2.231,-25.138 -7.583,-35.509l-53.475,-92.476c-12.613,-21.805 -38.558,-44.659 -66.266,-44.659l-118.795,0c-27.717,-0.001 -52.09,20.186 -64.86,42.262Z"/></clipPath><g clip-path="url(#_clip7)"><path d="M25.15,224.952l66.556,0l-33.277,57.508l-33.279,-57.508Z" style="fill:#72cff5;fill-rule:nonzero;"/></g><clipPath id="_clip8"><path d="M100.548,94.62l-54.489,94.797c-5.347,10.375 -7.823,22.183 -7.582,35.5c-0.241,13.345 2.235,25.153 7.582,35.531l54.694,95.181c13.108,22.659 40.829,41.941 65.799,42.023l118.787,0c24.965,-0.082 50.905,-20.22 63.782,-42.482l54.823,-94.65c5.352,-10.379 7.818,-22.187 7.583,-35.518c0.235,-13.33 -2.231,-25.138 -7.583,-35.509l-53.475,-92.476c-12.613,-21.805 -38.558,-44.659 -66.266,-44.659l-118.795,0c-27.717,-0.001 -52.09,20.186 -64.86,42.262Z"/></clipPath><g clip-path="url(#_clip8)"><path d="M91.706,224.943l66.546,0l-33.277,57.517l-33.269,-57.518Z" style="fill:#39c5f3;fill-rule:nonzero;"/></g><clipPath id="_clip9"><path d="M100.548,94.62l-54.489,94.797c-5.347,10.375 -7.823,22.183 -7.582,35.5c-0.241,13.345 2.235,25.153 7.582,35.531l54.694,95.181c13.108,22.659 40.829,41.941 65.799,42.023l118.787,0c24.965,-0.082 50.905,-20.22 63.782,-42.482l54.823,-94.65c5.352,-10.379 7.818,-22.187 7.583,-35.518c0.235,-13.33 -2.231,-25.138 -7.583,-35.509l-53.475,-92.476c-12.613,-21.805 -38.558,-44.659 -66.266,-44.659l-118.795,0c-27.717,-0.001 -52.09,20.186 -64.86,42.262Z"/></clipPath><g clip-path="url(#_clip9)"><path d="M191.535,52.365l66.546,0l-33.268,57.509l-33.278,-57.509Z" style="fill:#39c5f3;fill-rule:nonzero;"/></g><clipPath id="_clip10"><path d="M100.548,94.62l-54.489,94.797c-5.347,10.375 -7.823,22.183 -7.582,35.5c-0.241,13.345 2.235,25.153 7.582,35.531l54.694,95.181c13.108,22.659 40.829,41.941 65.799,42.023l118.787,0c24.965,-0.082 50.905,-20.22 63.782,-42.482l54.823,-94.65c5.352,-10.379 7.818,-22.187 7.583,-35.518c0.235,-13.33 -2.231,-25.138 -7.583,-35.509l-53.475,-92.476c-12.613,-21.805 -38.558,-44.659 -66.266,-44.659l-118.795,0c-27.717,-0.001 -52.09,20.186 -64.86,42.262Z"/></clipPath><g clip-path="url(#_clip10)"><path d="M124.984,167.413l66.551,0l-33.283,57.513l-33.268,-57.513Z" style="fill:#15bbee;fill-rule:nonzero;"/></g><clipPath id="_clip11"><path d="M100.548,94.62l-54.489,94.797c-5.347,10.375 -7.823,22.183 -7.582,35.5c-0.241,13.345 2.235,25.153 7.582,35.531l54.694,95.181c13.108,22.659 40.829,41.941 65.799,42.023l118.787,0c24.965,-0.082 50.905,-20.22 63.782,-42.482l54.823,-94.65c5.352,-10.379 7.818,-22.187 7.583,-35.518c0.235,-13.33 -2.231,-25.138 -7.583,-35.509l-53.475,-92.476c-12.613,-21.805 -38.558,-44.659 -66.266,-44.659l-118.795,0c-27.717,-0.001 -52.09,20.186 -64.86,42.262Z"/></clipPath><g clip-path="url(#_clip11)"><path d="M58.429,167.426l66.546,0l-33.269,57.517l-33.277,-57.517Z" style="fill:#72cff5;fill-rule:nonzero;"/></g><clipPath id="_clip12"><path d="M100.548,94.62l-54.489,94.797c-5.347,10.375 -7.823,22.183 -7.582,35.5c-0.241,13.345 2.235,25.153 7.582,35.531l54.694,95.181c13.108,22.659 40.829,41.941 65.799,42.023l118.787,0c24.965,-0.082 50.905,-20.22 63.782,-42.482l54.823,-94.65c5.352,-10.379 7.818,-22.187 7.583,-35.518c0.235,-13.33 -2.231,-25.138 -7.583,-35.509l-53.475,-92.476c-12.613,-21.805 -38.558,-44.659 -66.266,-44.659l-118.795,0c-27.717,-0.001 -52.09,20.186 -64.86,42.262Z"/></clipPath><g clip-path="url(#_clip12)"><path d="M58.429,282.46l66.546,0l-33.269,57.522l-33.277,-57.522Z" style="fill:#39c5f3;fill-rule:nonzero;"/></g><clipPath id="_clip13"><path d="M100.548,94.62l-54.489,94.797c-5.347,10.375 -7.823,22.183 -7.582,35.5c-0.241,13.345 2.235,25.153 7.582,35.531l54.694,95.181c13.108,22.659 40.829,41.941 65.799,42.023l118.787,0c24.965,-0.082 50.905,-20.22 63.782,-42.482l54.823,-94.65c5.352,-10.379 7.818,-22.187 7.583,-35.518c0.235,-13.33 -2.231,-25.138 -7.583,-35.509l-53.475,-92.476c-12.613,-21.805 -38.558,-44.659 -66.266,-44.659l-118.795,0c-27.717,-0.001 -52.09,20.186 -64.86,42.262Z"/></clipPath><g clip-path="url(#_clip13)"><path d="M191.535,282.46l66.546,0l-33.268,57.522l-33.278,-57.522Z" style="fill:#39c5f3;fill-rule:nonzero;"/></g><clipPath id="_clip14"><path d="M100.548,94.62l-54.489,94.797c-5.347,10.375 -7.823,22.183 -7.582,35.5c-0.241,13.345 2.235,25.153 7.582,35.531l54.694,95.181c13.108,22.659 40.829,41.941 65.799,42.023l118.787,0c24.965,-0.082 50.905,-20.22 63.782,-42.482l54.823,-94.65c5.352,-10.379 7.818,-22.187 7.583,-35.518c0.235,-13.33 -2.231,-25.138 -7.583,-35.509l-53.475,-92.476c-12.613,-21.805 -38.558,-44.659 -66.266,-44.659l-118.795,0c-27.717,-0.001 -52.09,20.186 -64.86,42.262Z"/></clipPath><g clip-path="url(#_clip14)"><path d="M91.706,109.892l66.546,0l-33.268,-57.527l-33.278,57.527Z" style="fill:#98daf8;fill-rule:nonzero;"/></g><clipPath id="_clip15"><path d="M100.548,94.62l-54.489,94.797c-5.347,10.375 -7.823,22.183 -7.582,35.5c-0.241,13.345 2.235,25.153 7.582,35.531l54.694,95.181c13.108,22.659 40.829,41.941 65.799,42.023l118.787,0c24.965,-0.082 50.905,-20.22 63.782,-42.482l54.823,-94.65c5.352,-10.379 7.818,-22.187 7.583,-35.518c0.235,-13.33 -2.231,-25.138 -7.583,-35.509l-53.475,-92.476c-12.613,-21.805 -38.558,-44.659 -66.266,-44.659l-118.795,0c-27.717,-0.001 -52.09,20.186 -64.86,42.262Z"/></clipPath><g clip-path="url(#_clip15)"><path d="M124.984,167.4l66.551,0l-33.283,-57.518l-33.268,57.518Z" style="fill:#39c5f3;fill-rule:nonzero;"/></g><clipPath id="_clip16"><path d="M100.548,94.62l-54.489,94.797c-5.347,10.375 -7.823,22.183 -7.582,35.5c-0.241,13.345 2.235,25.153 7.582,35.531l54.694,95.181c13.108,22.659 40.829,41.941 65.799,42.023l118.787,0c24.965,-0.082 50.905,-20.22 63.782,-42.482l54.823,-94.65c5.352,-10.379 7.818,-22.187 7.583,-35.518c0.235,-13.33 -2.231,-25.138 -7.583,-35.509l-53.475,-92.476c-12.613,-21.805 -38.558,-44.659 -66.266,-44.659l-118.795,0c-27.717,-0.001 -52.09,20.186 -64.86,42.262Z"/></clipPath><g clip-path="url(#_clip16)"><path d="M158.252,109.882l66.561,0l-33.278,-57.517l-33.283,57.517Z" style="fill:#72cff5;fill-rule:nonzero;"/></g><clipPath id="_clip17"><path d="M100.548,94.62l-54.489,94.797c-5.347,10.375 -7.823,22.183 -7.582,35.5c-0.241,13.345 2.235,25.153 7.582,35.531l54.694,95.181c13.108,22.659 40.829,41.941 65.799,42.023l118.787,0c24.965,-0.082 50.905,-20.22 63.782,-42.482l54.823,-94.65c5.352,-10.379 7.818,-22.187 7.583,-35.518c0.235,-13.33 -2.231,-25.138 -7.583,-35.509l-53.475,-92.476c-12.613,-21.805 -38.558,-44.659 -66.266,-44.659l-118.795,0c-27.717,-0.001 -52.09,20.186 -64.86,42.262Z"/></clipPath><g clip-path="url(#_clip17)"><path d="M91.706,109.892l66.546,0l-33.268,57.512l-33.278,-57.512Z" style="fill:#72cff5;fill-rule:nonzero;"/></g><clipPath id="_clip18"><path d="M100.548,94.62l-54.489,94.797c-5.347,10.375 -7.823,22.183 -7.582,35.5c-0.241,13.345 2.235,25.153 7.582,35.531l54.694,95.181c13.108,22.659 40.829,41.941 65.799,42.023l118.787,0c24.965,-0.082 50.905,-20.22 63.782,-42.482l54.823,-94.65c5.352,-10.379 7.818,-22.187 7.583,-35.518c0.235,-13.33 -2.231,-25.138 -7.583,-35.509l-53.475,-92.476c-12.613,-21.805 -38.558,-44.659 -66.266,-44.659l-118.795,0c-27.717,-0.001 -52.09,20.186 -64.86,42.262Z"/></clipPath><g clip-path="url(#_clip18)"><path d="M158.252,109.892l66.561,0l-33.278,57.512l-33.283,-57.512Z" style="fill:#98daf8;fill-rule:nonzero;"/></g><clipPath id="_clip19"><path d="M100.548,94.62l-54.489,94.797c-5.347,10.375 -7.823,22.183 -7.582,35.5c-0.241,13.345 2.235,25.153 7.582,35.531l54.694,95.181c13.108,22.659 40.829,41.941 65.799,42.023l118.787,0c24.965,-0.082 50.905,-20.22 63.782,-42.482l54.823,-94.65c5.352,-10.379 7.818,-22.187 7.583,-35.518c0.235,-13.33 -2.231,-25.138 -7.583,-35.509l-53.475,-92.476c-12.613,-21.805 -38.558,-44.659 -66.266,-44.659l-118.795,0c-27.717,-0.001 -52.09,20.186 -64.86,42.262Z"/></clipPath><g clip-path="url(#_clip19)"><path d="M124.984,52.365l66.551,0l-33.283,57.527l-33.268,-57.527Z" style="fill:#15bbee;fill-rule:nonzero;"/></g><clipPath id="_clip20"><path d="M100.548,94.62l-54.489,94.797c-5.347,10.375 -7.823,22.183 -7.582,35.5c-0.241,13.345 2.235,25.153 7.582,35.531l54.694,95.181c13.108,22.659 40.829,41.941 65.799,42.023l118.787,0c24.965,-0.082 50.905,-20.22 63.782,-42.482l54.823,-94.65c5.352,-10.379 7.818,-22.187 7.583,-35.518c0.235,-13.33 -2.231,-25.138 -7.583,-35.509l-53.475,-92.476c-12.613,-21.805 -38.558,-44.659 -66.266,-44.659l-118.795,0c-27.717,-0.001 -52.09,20.186 -64.86,42.262Z"/></clipPath><g clip-path="url(#_clip20)"><path d="M224.813,109.882l66.547,0l-33.279,-57.517l-33.268,57.517Z" style="fill:#72cff5;fill-rule:nonzero;"/></g><clipPath id="_clip21"><path d="M100.548,94.62l-54.489,94.797c-5.347,10.375 -7.823,22.183 -7.582,35.5c-0.241,13.345 2.235,25.153 7.582,35.531l54.694,95.181c13.108,22.659 40.829,41.941 65.799,42.023l118.787,0c24.965,-0.082 50.905,-20.22 63.782,-42.482l54.823,-94.65c5.352,-10.379 7.818,-22.187 7.583,-35.518c0.235,-13.33 -2.231,-25.138 -7.583,-35.509l-53.475,-92.476c-12.613,-21.805 -38.558,-44.659 -66.266,-44.659l-118.795,0c-27.717,-0.001 -52.09,20.186 -64.86,42.262Z"/></clipPath><g clip-path="url(#_clip21)"><path d="M258.081,167.4l66.556,0l-33.277,-57.526l-33.279,57.526Z" style="fill:#39c5f3;fill-rule:nonzero;"/></g><clipPath id="_clip22"><path d="M100.548,94.62l-54.489,94.797c-5.347,10.375 -7.823,22.183 -7.582,35.5c-0.241,13.345 2.235,25.153 7.582,35.531l54.694,95.181c13.108,22.659 40.829,41.941 65.799,42.023l118.787,0c24.965,-0.082 50.905,-20.22 63.782,-42.482l54.823,-94.65c5.352,-10.379 7.818,-22.187 7.583,-35.518c0.235,-13.33 -2.231,-25.138 -7.583,-35.509l-53.475,-92.476c-12.613,-21.805 -38.558,-44.659 -66.266,-44.659l-118.795,0c-27.717,-0.001 -52.09,20.186 -64.86,42.262Z"/></clipPath><g clip-path="url(#_clip22)"><path d="M191.726,167.4l66.556,0l-33.287,-57.526l-33.269,57.526Z" style="fill:#39c5f3;fill-rule:nonzero;"/></g><clipPath id="_clip23"><path d="M100.548,94.62l-54.489,94.797c-5.347,10.375 -7.823,22.183 -7.582,35.5c-0.241,13.345 2.235,25.153 7.582,35.531l54.694,95.181c13.108,22.659 40.829,41.941 65.799,42.023l118.787,0c24.965,-0.082 50.905,-20.22 63.782,-42.482l54.823,-94.65c5.352,-10.379 7.818,-22.187 7.583,-35.518c0.235,-13.33 -2.231,-25.138 -7.583,-35.509l-53.475,-92.476c-12.613,-21.805 -38.558,-44.659 -66.266,-44.659l-118.795,0c-27.717,-0.001 -52.09,20.186 -64.86,42.262Z"/></clipPath><g clip-path="url(#_clip23)"><path d="M291.36,109.874l66.546,0l-33.269,-57.517l-33.277,57.517Z" style="fill:#98daf8;fill-rule:nonzero;"/></g><clipPath id="_clip24"><path d="M100.548,94.62l-54.489,94.797c-5.347,10.375 -7.823,22.183 -7.582,35.5c-0.241,13.345 2.235,25.153 7.582,35.531l54.694,95.181c13.108,22.659 40.829,41.941 65.799,42.023l118.787,0c24.965,-0.082 50.905,-20.22 63.782,-42.482l54.823,-94.65c5.352,-10.379 7.818,-22.187 7.583,-35.518c0.235,-13.33 -2.231,-25.138 -7.583,-35.509l-53.475,-92.476c-12.613,-21.805 -38.558,-44.659 -66.266,-44.659l-118.795,0c-27.717,-0.001 -52.09,20.186 -64.86,42.262Z"/></clipPath><g clip-path="url(#_clip24)"><path d="M224.813,109.892l66.547,0l-33.279,57.512l-33.268,-57.512Z" style="fill:#15bbee;fill-rule:nonzero;"/></g><clipPath id="_clip25"><path d="M100.548,94.62l-54.489,94.797c-5.347,10.375 -7.823,22.183 -7.582,35.5c-0.241,13.345 2.235,25.153 7.582,35.531l54.694,95.181c13.108,22.659 40.829,41.941 65.799,42.023l118.787,0c24.965,-0.082 50.905,-20.22 63.782,-42.482l54.823,-94.65c5.352,-10.379 7.818,-22.187 7.583,-35.518c0.235,-13.33 -2.231,-25.138 -7.583,-35.509l-53.475,-92.476c-12.613,-21.805 -38.558,-44.659 -66.266,-44.659l-118.795,0c-27.717,-0.001 -52.09,20.186 -64.86,42.262Z"/></clipPath><g clip-path="url(#_clip25)"><path d="M191.726,167.493l66.556,0l-33.278,57.507l-33.278,-57.507Z" style="fill:#15bbee;fill-rule:nonzero;"/></g><clipPath id="_clip26"><path d="M100.548,94.62l-54.489,94.797c-5.347,10.375 -7.823,22.183 -7.582,35.5c-0.241,13.345 2.235,25.153 7.582,35.531l54.694,95.181c13.108,22.659 40.829,41.941 65.799,42.023l118.787,0c24.965,-0.082 50.905,-20.22 63.782,-42.482l54.823,-94.65c5.352,-10.379 7.818,-22.187 7.583,-35.518c0.235,-13.33 -2.231,-25.138 -7.583,-35.509l-53.475,-92.476c-12.613,-21.805 -38.558,-44.659 -66.266,-44.659l-118.795,0c-27.717,-0.001 -52.09,20.186 -64.86,42.262Z"/></clipPath><g clip-path="url(#_clip26)"><path d="M291.36,109.882l66.546,0l-33.269,57.518l-33.277,-57.518Z" style="fill:#72cff5;fill-rule:nonzero;"/></g><clipPath id="_clip27"><path d="M100.548,94.62l-54.489,94.797c-5.347,10.375 -7.823,22.183 -7.582,35.5c-0.241,13.345 2.235,25.153 7.582,35.531l54.694,95.181c13.108,22.659 40.829,41.941 65.799,42.023l118.787,0c24.965,-0.082 50.905,-20.22 63.782,-42.482l54.823,-94.65c5.352,-10.379 7.818,-22.187 7.583,-35.518c0.235,-13.33 -2.231,-25.138 -7.583,-35.509l-53.475,-92.476c-12.613,-21.805 -38.558,-44.659 -66.266,-44.659l-118.795,0c-27.717,-0.001 -52.09,20.186 -64.86,42.262Z"/></clipPath><g clip-path="url(#_clip27)"><path d="M258.081,52.365l66.556,0l-33.277,57.517l-33.279,-57.517Z" style="fill:#39c5f3;fill-rule:nonzero;"/></g><clipPath id="_clip28"><path d="M100.548,94.62l-54.489,94.797c-5.347,10.375 -7.823,22.183 -7.582,35.5c-0.241,13.345 2.235,25.153 7.582,35.531l54.694,95.181c13.108,22.659 40.829,41.941 65.799,42.023l118.787,0c24.965,-0.082 50.905,-20.22 63.782,-42.482l54.823,-94.65c5.352,-10.379 7.818,-22.187 7.583,-35.518c0.235,-13.33 -2.231,-25.138 -7.583,-35.509l-53.475,-92.476c-12.613,-21.805 -38.558,-44.659 -66.266,-44.659l-118.795,0c-27.717,-0.001 -52.09,20.186 -64.86,42.262Z"/></clipPath><g clip-path="url(#_clip28)"><path d="M258.081,167.426l66.556,0l-33.277,57.517l-33.279,-57.517Z" style="fill:#15bbee;fill-rule:nonzero;"/></g><clipPath id="_clip29"><path d="M100.548,94.62l-54.489,94.797c-5.347,10.375 -7.823,22.183 -7.582,35.5c-0.241,13.345 2.235,25.153 7.582,35.531l54.694,95.181c13.108,22.659 40.829,41.941 65.799,42.023l118.787,0c24.965,-0.082 50.905,-20.22 63.782,-42.482l54.823,-94.65c5.352,-10.379 7.818,-22.187 7.583,-35.518c0.235,-13.33 -2.231,-25.138 -7.583,-35.509l-53.475,-92.476c-12.613,-21.805 -38.558,-44.659 -66.266,-44.659l-118.795,0c-27.717,-0.001 -52.09,20.186 -64.86,42.262Z"/></clipPath><g clip-path="url(#_clip29)"><path d="M91.706,339.985l66.546,0l-33.268,-57.512l-33.278,57.512Z" style="fill:#98daf8;fill-rule:nonzero;"/></g><clipPath id="_clip30"><path d="M100.548,94.62l-54.489,94.797c-5.347,10.375 -7.823,22.183 -7.582,35.5c-0.241,13.345 2.235,25.153 7.582,35.531l54.694,95.181c13.108,22.659 40.829,41.941 65.799,42.023l118.787,0c24.965,-0.082 50.905,-20.22 63.782,-42.482l54.823,-94.65c5.352,-10.379 7.818,-22.187 7.583,-35.518c0.235,-13.33 -2.231,-25.138 -7.583,-35.509l-53.475,-92.476c-12.613,-21.805 -38.558,-44.659 -66.266,-44.659l-118.795,0c-27.717,-0.001 -52.09,20.186 -64.86,42.262Z"/></clipPath><g clip-path="url(#_clip30)"><path d="M124.984,397.494l66.551,0l-33.283,-57.512l-33.268,57.512Z" style="fill:#98daf8;fill-rule:nonzero;"/></g><clipPath id="_clip31"><path d="M100.548,94.62l-54.489,94.797c-5.347,10.375 -7.823,22.183 -7.582,35.5c-0.241,13.345 2.235,25.153 7.582,35.531l54.694,95.181c13.108,22.659 40.829,41.941 65.799,42.023l118.787,0c24.965,-0.082 50.905,-20.22 63.782,-42.482l54.823,-94.65c5.352,-10.379 7.818,-22.187 7.583,-35.518c0.235,-13.33 -2.231,-25.138 -7.583,-35.509l-53.475,-92.476c-12.613,-21.805 -38.558,-44.659 -66.266,-44.659l-118.795,0c-27.717,-0.001 -52.09,20.186 -64.86,42.262Z"/></clipPath><g clip-path="url(#_clip31)"><path d="M158.252,339.982l66.561,0l-33.278,-57.51l-33.283,57.51Z" style="fill:#72cff5;fill-rule:nonzero;"/></g><clipPath id="_clip32"><path d="M100.548,94.62l-54.489,94.797c-5.347,10.375 -7.823,22.183 -7.582,35.5c-0.241,13.345 2.235,25.153 7.582,35.531l54.694,95.181c13.108,22.659 40.829,41.941 65.799,42.023l118.787,0c24.965,-0.082 50.905,-20.22 63.782,-42.482l54.823,-94.65c5.352,-10.379 7.818,-22.187 7.583,-35.518c0.235,-13.33 -2.231,-25.138 -7.583,-35.509l-53.475,-92.476c-12.613,-21.805 -38.558,-44.659 -66.266,-44.659l-118.795,0c-27.717,-0.001 -52.09,20.186 -64.86,42.262Z"/></clipPath><g clip-path="url(#_clip32)"><path d="M191.726,282.518l66.556,0l-33.278,-57.507l-33.278,57.507Z" style="fill:#72cff5;fill-rule:nonzero;"/></g><clipPath id="_clip33"><path d="M100.548,94.62l-54.489,94.797c-5.347,10.375 -7.823,22.183 -7.582,35.5c-0.241,13.345 2.235,25.153 7.582,35.531l54.694,95.181c13.108,22.659 40.829,41.941 65.799,42.023l118.787,0c24.965,-0.082 50.905,-20.22 63.782,-42.482l54.823,-94.65c5.352,-10.379 7.818,-22.187 7.583,-35.518c0.235,-13.33 -2.231,-25.138 -7.583,-35.509l-53.475,-92.476c-12.613,-21.805 -38.558,-44.659 -66.266,-44.659l-118.795,0c-27.717,-0.001 -52.09,20.186 -64.86,42.262Z"/></clipPath><g clip-path="url(#_clip33)"><path d="M258.282,282.518l66.551,0l-33.277,-57.507l-33.274,57.507Z" style="fill:#39c5f3;fill-rule:nonzero;"/></g><clipPath id="_clip34"><path d="M100.548,94.62l-54.489,94.797c-5.347,10.375 -7.823,22.183 -7.582,35.5c-0.241,13.345 2.235,25.153 7.582,35.531l54.694,95.181c13.108,22.659 40.829,41.941 65.799,42.023l118.787,0c24.965,-0.082 50.905,-20.22 63.782,-42.482l54.823,-94.65c5.352,-10.379 7.818,-22.187 7.583,-35.518c0.235,-13.33 -2.231,-25.138 -7.583,-35.509l-53.475,-92.476c-12.613,-21.805 -38.558,-44.659 -66.266,-44.659l-118.795,0c-27.717,-0.001 -52.09,20.186 -64.86,42.262Z"/></clipPath><g clip-path="url(#_clip34)"><path d="M91.706,339.994l66.546,0l-33.268,57.519l-33.278,-57.519Z" style="fill:#39c5f3;fill-rule:nonzero;"/></g><clipPath id="_clip35"><path d="M100.548,94.62l-54.489,94.797c-5.347,10.375 -7.823,22.183 -7.582,35.5c-0.241,13.345 2.235,25.153 7.582,35.531l54.694,95.181c13.108,22.659 40.829,41.941 65.799,42.023l118.787,0c24.965,-0.082 50.905,-20.22 63.782,-42.482l54.823,-94.65c5.352,-10.379 7.818,-22.187 7.583,-35.518c0.235,-13.33 -2.231,-25.138 -7.583,-35.509l-53.475,-92.476c-12.613,-21.805 -38.558,-44.659 -66.266,-44.659l-118.795,0c-27.717,-0.001 -52.09,20.186 -64.86,42.262Z"/></clipPath><g clip-path="url(#_clip35)"><path d="M158.252,339.985l66.561,0l-33.278,57.519l-33.283,-57.519Z" style="fill:#39c5f3;fill-rule:nonzero;"/></g><clipPath id="_clip36"><path d="M100.548,94.62l-54.489,94.797c-5.347,10.375 -7.823,22.183 -7.582,35.5c-0.241,13.345 2.235,25.153 7.582,35.531l54.694,95.181c13.108,22.659 40.829,41.941 65.799,42.023l118.787,0c24.965,-0.082 50.905,-20.22 63.782,-42.482l54.823,-94.65c5.352,-10.379 7.818,-22.187 7.583,-35.518c0.235,-13.33 -2.231,-25.138 -7.583,-35.509l-53.475,-92.476c-12.613,-21.805 -38.558,-44.659 -66.266,-44.659l-118.795,0c-27.717,-0.001 -52.09,20.186 -64.86,42.262Z"/></clipPath><g clip-path="url(#_clip36)"><path d="M124.984,282.473l66.551,0l-33.283,57.512l-33.268,-57.512Z" style="fill:#15bbee;fill-rule:nonzero;"/></g><clipPath id="_clip37"><path d="M100.548,94.62l-54.489,94.797c-5.347,10.375 -7.823,22.183 -7.582,35.5c-0.241,13.345 2.235,25.153 7.582,35.531l54.694,95.181c13.108,22.659 40.829,41.941 65.799,42.023l118.787,0c24.965,-0.082 50.905,-20.22 63.782,-42.482l54.823,-94.65c5.352,-10.379 7.818,-22.187 7.583,-35.518c0.235,-13.33 -2.231,-25.138 -7.583,-35.509l-53.475,-92.476c-12.613,-21.805 -38.558,-44.659 -66.266,-44.659l-118.795,0c-27.717,-0.001 -52.09,20.186 -64.86,42.262Z"/></clipPath><g clip-path="url(#_clip37)"><path d="M224.813,339.982l66.547,0l-33.279,-57.51l-33.268,57.51Z" style="fill:#98daf8;fill-rule:nonzero;"/></g><clipPath id="_clip38"><path d="M100.548,94.62l-54.489,94.797c-5.347,10.375 -7.823,22.183 -7.582,35.5c-0.241,13.345 2.235,25.153 7.582,35.531l54.694,95.181c13.108,22.659 40.829,41.941 65.799,42.023l118.787,0c24.965,-0.082 50.905,-20.22 63.782,-42.482l54.823,-94.65c5.352,-10.379 7.818,-22.187 7.583,-35.518c0.235,-13.33 -2.231,-25.138 -7.583,-35.509l-53.475,-92.476c-12.613,-21.805 -38.558,-44.659 -66.266,-44.659l-118.795,0c-27.717,-0.001 -52.09,20.186 -64.86,42.262Z"/></clipPath><g clip-path="url(#_clip38)"><path d="M258.081,397.494l66.556,0l-33.277,-57.512l-33.279,57.512Z" style="fill:#72cff5;fill-rule:nonzero;"/></g><clipPath id="_clip39"><path d="M100.548,94.62l-54.489,94.797c-5.347,10.375 -7.823,22.183 -7.582,35.5c-0.241,13.345 2.235,25.153 7.582,35.531l54.694,95.181c13.108,22.659 40.829,41.941 65.799,42.023l118.787,0c24.965,-0.082 50.905,-20.22 63.782,-42.482l54.823,-94.65c5.352,-10.379 7.818,-22.187 7.583,-35.518c0.235,-13.33 -2.231,-25.138 -7.583,-35.509l-53.475,-92.476c-12.613,-21.805 -38.558,-44.659 -66.266,-44.659l-118.795,0c-27.717,-0.001 -52.09,20.186 -64.86,42.262Z"/></clipPath><g clip-path="url(#_clip39)"><path d="M291.36,339.982l66.546,0l-33.269,-57.522l-33.277,57.522Z" style="fill:#72cff5;fill-rule:nonzero;"/></g><clipPath id="_clip40"><path d="M100.548,94.62l-54.489,94.797c-5.347,10.375 -7.823,22.183 -7.582,35.5c-0.241,13.345 2.235,25.153 7.582,35.531l54.694,95.181c13.108,22.659 40.829,41.941 65.799,42.023l118.787,0c24.965,-0.082 50.905,-20.22 63.782,-42.482l54.823,-94.65c5.352,-10.379 7.818,-22.187 7.583,-35.518c0.235,-13.33 -2.231,-25.138 -7.583,-35.509l-53.475,-92.476c-12.613,-21.805 -38.558,-44.659 -66.266,-44.659l-118.795,0c-27.717,-0.001 -52.09,20.186 -64.86,42.262Z"/></clipPath><g clip-path="url(#_clip40)"><path d="M125.193,282.518l66.547,0l-33.274,-57.507l-33.273,57.507Z" style="fill:#72cff5;fill-rule:nonzero;"/></g><clipPath id="_clip41"><path d="M100.548,94.62l-54.489,94.797c-5.347,10.375 -7.823,22.183 -7.582,35.5c-0.241,13.345 2.235,25.153 7.582,35.531l54.694,95.181c13.108,22.659 40.829,41.941 65.799,42.023l118.787,0c24.965,-0.082 50.905,-20.22 63.782,-42.482l54.823,-94.65c5.352,-10.379 7.818,-22.187 7.583,-35.518c0.235,-13.33 -2.231,-25.138 -7.583,-35.509l-53.475,-92.476c-12.613,-21.805 -38.558,-44.659 -66.266,-44.659l-118.795,0c-27.717,-0.001 -52.09,20.186 -64.86,42.262Z"/></clipPath><g clip-path="url(#_clip41)"><path d="M224.813,339.985l66.547,0l-33.279,57.519l-33.268,-57.519Z" style="fill:#39c5f3;fill-rule:nonzero;"/></g><clipPath id="_clip42"><path d="M100.548,94.62l-54.489,94.797c-5.347,10.375 -7.823,22.183 -7.582,35.5c-0.241,13.345 2.235,25.153 7.582,35.531l54.694,95.181c13.108,22.659 40.829,41.941 65.799,42.023l118.787,0c24.965,-0.082 50.905,-20.22 63.782,-42.482l54.823,-94.65c5.352,-10.379 7.818,-22.187 7.583,-35.518c0.235,-13.33 -2.231,-25.138 -7.583,-35.509l-53.475,-92.476c-12.613,-21.805 -38.558,-44.659 -66.266,-44.659l-118.795,0c-27.717,-0.001 -52.09,20.186 -64.86,42.262Z"/></clipPath><g clip-path="url(#_clip42)"><path d="M291.36,339.982l66.546,0l-33.269,57.512l-33.277,-57.512Z" style="fill:#15bbee;fill-rule:nonzero;"/></g><clipPath id="_clip43"><path d="M100.548,94.62l-54.489,94.797c-5.347,10.375 -7.823,22.183 -7.582,35.5c-0.241,13.345 2.235,25.153 7.582,35.531l54.694,95.181c13.108,22.659 40.829,41.941 65.799,42.023l118.787,0c24.965,-0.082 50.905,-20.22 63.782,-42.482l54.823,-94.65c5.352,-10.379 7.818,-22.187 7.583,-35.518c0.235,-13.33 -2.231,-25.138 -7.583,-35.509l-53.475,-92.476c-12.613,-21.805 -38.558,-44.659 -66.266,-44.659l-118.795,0c-27.717,-0.001 -52.09,20.186 -64.86,42.262Z"/></clipPath><g clip-path="url(#_clip43)"><path d="M258.081,282.473l66.556,0l-33.277,57.509l-33.279,-57.51Z" style="fill:#15bbee;fill-rule:nonzero;"/></g><clipPath id="_clip44"><path d="M100.548,94.62l-54.489,94.797c-5.347,10.375 -7.823,22.183 -7.582,35.5c-0.241,13.345 2.235,25.153 7.582,35.531l54.694,95.181c13.108,22.659 40.829,41.941 65.799,42.023l118.787,0c24.965,-0.082 50.905,-20.22 63.782,-42.482l54.823,-94.65c5.352,-10.379 7.818,-22.187 7.583,-35.518c0.235,-13.33 -2.231,-25.138 -7.583,-35.509l-53.475,-92.476c-12.613,-21.805 -38.558,-44.659 -66.266,-44.659l-118.795,0c-27.717,-0.001 -52.09,20.186 -64.86,42.262Z"/></clipPath><g clip-path="url(#_clip44)"><path d="M291.36,224.934l66.554,0l-33.277,-57.521l-33.277,57.521Z" style="fill:#98daf8;fill-rule:nonzero;"/></g><clipPath id="_clip45"><path d="M100.548,94.62l-54.489,94.797c-5.347,10.375 -7.823,22.183 -7.582,35.5c-0.241,13.345 2.235,25.153 7.582,35.531l54.694,95.181c13.108,22.659 40.829,41.941 65.799,42.023l118.787,0c24.965,-0.082 50.905,-20.22 63.782,-42.482l54.823,-94.65c5.352,-10.379 7.818,-22.187 7.583,-35.518c0.235,-13.33 -2.231,-25.138 -7.583,-35.509l-53.475,-92.476c-12.613,-21.805 -38.558,-44.659 -66.266,-44.659l-118.795,0c-27.717,-0.001 -52.09,20.186 -64.86,42.262Z"/></clipPath><g clip-path="url(#_clip45)"><path d="M158.449,225l66.555,0l-33.278,-57.511l-33.277,57.511Z" style="fill:#98daf8;fill-rule:nonzero;"/></g><clipPath id="_clip46"><path d="M100.548,94.62l-54.489,94.797c-5.347,10.375 -7.823,22.183 -7.582,35.5c-0.241,13.345 2.235,25.153 7.582,35.531l54.694,95.181c13.108,22.659 40.829,41.941 65.799,42.023l118.787,0c24.965,-0.082 50.905,-20.22 63.782,-42.482l54.823,-94.65c5.352,-10.379 7.818,-22.187 7.583,-35.518c0.235,-13.33 -2.231,-25.138 -7.583,-35.509l-53.475,-92.476c-12.613,-21.805 -38.558,-44.659 -66.266,-44.659l-118.795,0c-27.717,-0.001 -52.09,20.186 -64.86,42.262Z"/></clipPath><g clip-path="url(#_clip46)"><path d="M324.637,282.443l66.556,0l-33.279,-57.517l-33.277,57.517Z" style="fill:#72cff5;fill-rule:nonzero;"/></g><clipPath id="_clip47"><path d="M100.548,94.62l-54.489,94.797c-5.347,10.375 -7.823,22.183 -7.582,35.5c-0.241,13.345 2.235,25.153 7.582,35.531l54.694,95.181c13.108,22.659 40.829,41.941 65.799,42.023l118.787,0c24.965,-0.082 50.905,-20.22 63.782,-42.482l54.823,-94.65c5.352,-10.379 7.818,-22.187 7.583,-35.518c0.235,-13.33 -2.231,-25.138 -7.583,-35.509l-53.475,-92.476c-12.613,-21.805 -38.558,-44.659 -66.266,-44.659l-118.795,0c-27.717,-0.001 -52.09,20.186 -64.86,42.262Z"/></clipPath><g clip-path="url(#_clip47)"><path d="M324.637,167.404l66.556,0l-33.279,-57.512l-33.277,57.512Z" style="fill:#15bbee;fill-rule:nonzero;"/></g><clipPath id="_clip48"><path d="M100.548,94.62l-54.489,94.797c-5.347,10.375 -7.823,22.183 -7.582,35.5c-0.241,13.345 2.235,25.153 7.582,35.531l54.694,95.181c13.108,22.659 40.829,41.941 65.799,42.023l118.787,0c24.965,-0.082 50.905,-20.22 63.782,-42.482l54.823,-94.65c5.352,-10.379 7.818,-22.187 7.583,-35.518c0.235,-13.33 -2.231,-25.138 -7.583,-35.509l-53.475,-92.476c-12.613,-21.805 -38.558,-44.659 -66.266,-44.659l-118.795,0c-27.717,-0.001 -52.09,20.186 -64.86,42.262Z"/></clipPath><g clip-path="url(#_clip48)"><path d="M357.914,224.926l66.548,0l-33.269,-57.513l-33.279,57.513Z" style="fill:#72cff5;fill-rule:nonzero;"/></g><clipPath id="_clip49"><path d="M100.548,94.62l-54.489,94.797c-5.347,10.375 -7.823,22.183 -7.582,35.5c-0.241,13.345 2.235,25.153 7.582,35.531l54.694,95.181c13.108,22.659 40.829,41.941 65.799,42.023l118.787,0c24.965,-0.082 50.905,-20.22 63.782,-42.482l54.823,-94.65c5.352,-10.379 7.818,-22.187 7.583,-35.518c0.235,-13.33 -2.231,-25.138 -7.583,-35.509l-53.475,-92.476c-12.613,-21.805 -38.558,-44.659 -66.266,-44.659l-118.795,0c-27.717,-0.001 -52.09,20.186 -64.86,42.262Z"/></clipPath><g clip-path="url(#_clip49)"><path d="M225.004,225.011l66.547,0l-33.269,-57.518l-33.278,57.518Z" style="fill:#72cff5;fill-rule:nonzero;"/></g><clipPath id="_clip50"><path d="M100.548,94.62l-54.489,94.797c-5.347,10.375 -7.823,22.183 -7.582,35.5c-0.241,13.345 2.235,25.153 7.582,35.531l54.694,95.181c13.108,22.659 40.829,41.941 65.799,42.023l118.787,0c24.965,-0.082 50.905,-20.22 63.782,-42.482l54.823,-94.65c5.352,-10.379 7.818,-22.187 7.583,-35.518c0.235,-13.33 -2.231,-25.138 -7.583,-35.509l-53.475,-92.476c-12.613,-21.805 -38.558,-44.659 -66.266,-44.659l-118.795,0c-27.717,-0.001 -52.09,20.186 -64.86,42.262Z"/></clipPath><g clip-path="url(#_clip50)"><path d="M291.36,224.934l66.554,0l-33.277,57.517l-33.277,-57.517Z" style="fill:#39c5f3;fill-rule:nonzero;"/></g><clipPath id="_clip51"><path d="M100.548,94.62l-54.489,94.797c-5.347,10.375 -7.823,22.183 -7.582,35.5c-0.241,13.345 2.235,25.153 7.582,35.531l54.694,95.181c13.108,22.659 40.829,41.941 65.799,42.023l118.787,0c24.965,-0.082 50.905,-20.22 63.782,-42.482l54.823,-94.65c5.352,-10.379 7.818,-22.187 7.583,-35.518c0.235,-13.33 -2.231,-25.138 -7.583,-35.509l-53.475,-92.476c-12.613,-21.805 -38.558,-44.659 -66.266,-44.659l-118.795,0c-27.717,-0.001 -52.09,20.186 -64.86,42.262Z"/></clipPath><g clip-path="url(#_clip51)"><path d="M158.449,225.011l66.555,0l-33.278,57.507l-33.277,-57.507Z" style="fill:#39c5f3;fill-rule:nonzero;"/></g><clipPath id="_clip52"><path d="M100.548,94.62l-54.489,94.797c-5.347,10.375 -7.823,22.183 -7.582,35.5c-0.241,13.345 2.235,25.153 7.582,35.531l54.694,95.181c13.108,22.659 40.829,41.941 65.799,42.023l118.787,0c24.965,-0.082 50.905,-20.22 63.782,-42.482l54.823,-94.65c5.352,-10.379 7.818,-22.187 7.583,-35.518c0.235,-13.33 -2.231,-25.138 -7.583,-35.509l-53.475,-92.476c-12.613,-21.805 -38.558,-44.659 -66.266,-44.659l-118.795,0c-27.717,-0.001 -52.09,20.186 -64.86,42.262Z"/></clipPath><g clip-path="url(#_clip52)"><path d="M224.995,225.011l66.556,0l-33.278,57.507l-33.278,-57.507Z" style="fill:#15bbee;fill-rule:nonzero;"/></g><clipPath id="_clip53"><path d="M100.548,94.62l-54.489,94.797c-5.347,10.375 -7.823,22.183 -7.582,35.5c-0.241,13.345 2.235,25.153 7.582,35.531l54.694,95.181c13.108,22.659 40.829,41.941 65.799,42.023l118.787,0c24.965,-0.082 50.905,-20.22 63.782,-42.482l54.823,-94.65c5.352,-10.379 7.818,-22.187 7.583,-35.518c0.235,-13.33 -2.231,-25.138 -7.583,-35.509l-53.475,-92.476c-12.613,-21.805 -38.558,-44.659 -66.266,-44.659l-118.795,0c-27.717,-0.001 -52.09,20.186 -64.86,42.262Z"/></clipPath><g clip-path="url(#_clip53)"><path d="M357.914,224.934l66.548,0l-33.269,57.517l-33.279,-57.517Z" style="fill:#39c5f3;fill-rule:nonzero;"/></g><clipPath id="_clip54"><path d="M100.548,94.62l-54.489,94.797c-5.347,10.375 -7.823,22.183 -7.582,35.5c-0.241,13.345 2.235,25.153 7.582,35.531l54.694,95.181c13.108,22.659 40.829,41.941 65.799,42.023l118.787,0c24.965,-0.082 50.905,-20.22 63.782,-42.482l54.823,-94.65c5.352,-10.379 7.818,-22.187 7.583,-35.518c0.235,-13.33 -2.231,-25.138 -7.583,-35.509l-53.475,-92.476c-12.613,-21.805 -38.558,-44.659 -66.266,-44.659l-118.795,0c-27.717,-0.001 -52.09,20.186 -64.86,42.262Z"/></clipPath><g clip-path="url(#_clip54)"><path d="M324.637,167.413l66.556,0l-33.279,57.521l-33.277,-57.522Z" style="fill:#39c5f3;fill-rule:nonzero;"/></g><clipPath id="_clip55"><path d="M100.548,94.62l-54.489,94.797c-5.347,10.375 -7.823,22.183 -7.582,35.5c-0.241,13.345 2.235,25.153 7.582,35.531l54.694,95.181c13.108,22.659 40.829,41.941 65.799,42.023l118.787,0c24.965,-0.082 50.905,-20.22 63.782,-42.482l54.823,-94.65c5.352,-10.379 7.818,-22.187 7.583,-35.518c0.235,-13.33 -2.231,-25.138 -7.583,-35.509l-53.475,-92.476c-12.613,-21.805 -38.558,-44.659 -66.266,-44.659l-118.795,0c-27.717,-0.001 -52.09,20.186 -64.86,42.262Z"/></clipPath><g clip-path="url(#_clip55)"><path d="M324.637,282.473l66.556,0l-33.279,57.512l-33.277,-57.512Z" style="fill:#39c5f3;fill-rule:nonzero;"/></g></g></g><path d="M353,145.605c-9.419,4.178 -19.542,7.001 -30.166,8.27c10.845,-6.5 19.172,-16.793 23.093,-29.057c-10.147,6.018 -21.388,10.39 -33.351,12.746c-9.581,-10.208 -23.231,-16.587 -38.337,-16.587c-29.006,0 -52.523,23.516 -52.523,52.521c0,4.116 0.465,8.125 1.361,11.968c-43.651,-2.19 -82.351,-23.099 -108.256,-54.875c-4.52,7.757 -7.111,16.779 -7.111,26.405c0,18.221 9.274,34.297 23.366,43.715c-8.61,-0.273 -16.708,-2.635 -23.79,-6.569c-0.003,0.219 -0.003,0.439 -0.003,0.66c0,25.448 18.104,46.676 42.131,51.5c-4.408,1.2 -9.048,1.842 -13.838,1.842c-3.385,0 -6.675,-0.329 -9.881,-0.942c6.683,20.866 26.079,36.051 49.062,36.475c-17.975,14.086 -40.622,22.483 -65.228,22.483c-4.239,0 -8.42,-0.248 -12.529,-0.733c23.243,14.901 50.851,23.596 80.511,23.596c96.606,0 149.433,-80.031 149.433,-149.435c0,-2.277 -0.051,-4.543 -0.152,-6.795c10.261,-7.405 19.166,-16.655 26.208,-27.188" style="fill:#fff;fill-rule:nonzero;"/></g></svg>