<?xml version="1.0" encoding="UTF-8" standalone="no"?><!DOCTYPE svg PUBLIC "-//W3C//DTD SVG 1.1//EN" "http://www.w3.org/Graphics/SVG/1.1/DTD/svg11.dtd"><svg width="100%" height="100%" viewBox="0 0 450 450" version="1.1" xmlns="http://www.w3.org/2000/svg" xmlns:xlink="http://www.w3.org/1999/xlink" xml:space="preserve" style="fill-rule:evenodd;clip-rule:evenodd;stroke-linecap:round;stroke-linejoin:round;stroke-miterlimit:1.41421;"><g id="Idea_2"><path d="M353,145.605c-9.419,4.178 -19.542,7.001 -30.166,8.27c10.845,-6.5 19.172,-16.793 23.093,-29.057c-10.147,6.018 -21.388,10.39 -33.351,12.746c-9.581,-10.208 -23.231,-16.587 -38.337,-16.587c-29.006,0 -52.523,23.516 -52.523,52.521c0,4.116 0.465,8.125 1.361,11.968c-43.651,-2.19 -82.351,-23.099 -108.256,-54.875c-4.52,7.757 -7.111,16.779 -7.111,26.405c0,18.221 9.274,34.297 23.366,43.715c-8.61,-0.273 -16.708,-2.635 -23.79,-6.569c-0.003,0.219 -0.003,0.439 -0.003,0.66c0,25.448 18.104,46.676 42.131,51.5c-4.408,1.2 -9.048,1.842 -13.838,1.842c-3.385,0 -6.675,-0.329 -9.881,-0.942c6.683,20.866 26.079,36.051 49.062,36.475c-17.975,14.086 -40.622,22.483 -65.228,22.483c-4.239,0 -8.42,-0.248 -12.529,-0.733c23.243,14.901 50.851,23.596 80.511,23.596c96.606,0 149.433,-80.031 149.433,-149.435c0,-2.277 -0.051,-4.543 -0.152,-6.795c10.261,-7.405 19.166,-16.655 26.208,-27.188" style="fill:#fff;fill-rule:nonzero;stroke:#fff;stroke-width:11px;"/><path d="M353,145.605c-9.419,4.178 -19.542,7.001 -30.166,8.27c10.845,-6.5 19.172,-16.793 23.093,-29.057c-10.147,6.018 -21.388,10.39 -33.351,12.746c-9.581,-10.208 -23.231,-16.587 -38.337,-16.587c-29.006,0 -52.523,23.516 -52.523,52.521c0,4.116 0.465,8.125 1.361,11.968c-43.651,-2.19 -82.351,-23.099 -108.256,-54.875c-4.52,7.757 -7.111,16.779 -7.111,26.405c0,18.221 9.274,34.297 23.366,43.715c-8.61,-0.273 -16.708,-2.635 -23.79,-6.569c-0.003,0.219 -0.003,0.439 -0.003,0.66c0,25.448 18.104,46.676 42.131,51.5c-4.408,1.2 -9.048,1.842 -13.838,1.842c-3.385,0 -6.675,-0.329 -9.881,-0.942c6.683,20.866 26.079,36.051 49.062,36.475c-17.975,14.086 -40.622,22.483 -65.228,22.483c-4.239,0 -8.42,-0.248 -12.529,-0.733c23.243,14.901 50.851,23.596 80.511,23.596c96.606,0 149.433,-80.031 149.433,-149.435c0,-2.277 -0.051,-4.543 -0.152,-6.795c10.261,-7.405 19.166,-16.655 26.208,-27.188" style="fill:#15bbee;fill-rule:nonzero;"/><g id="triangles"><clipPath id="_clip1"><path d="M100.548,94.62l-54.489,94.797c-5.347,10.375 -7.823,22.183 -7.582,35.5c-0.241,13.345 2.235,25.153 7.582,35.531l54.694,95.181c13.108,22.659 40.829,41.941 65.799,42.023l118.787,0c24.965,-0.082 50.905,-20.22 63.782,-42.482l54.823,-94.65c5.352,-10.379 7.818,-22.187 7.583,-35.518c0.235,-13.33 -2.231,-25.138 -7.583,-35.509l-53.475,-92.476c-12.613,-21.805 -38.558,-44.659 -66.266,-44.659l-118.795,0c-27.717,-0.001 -52.09,20.186 -64.86,42.262Z"/></clipPath><g clip-path="url(#_clip1)"><path d="M258.081,167.426l66.556,0l-33.277,57.517l-33.279,-57.517Z" style="fill:#15bbee;fill-rule:nonzero;"/></g><clipPath id="_clip2"><path d="M100.548,94.62l-54.489,94.797c-5.347,10.375 -7.823,22.183 -7.582,35.5c-0.241,13.345 2.235,25.153 7.582,35.531l54.694,95.181c13.108,22.659 40.829,41.941 65.799,42.023l118.787,0c24.965,-0.082 50.905,-20.22 63.782,-42.482l54.823,-94.65c5.352,-10.379 7.818,-22.187 7.583,-35.518c0.235,-13.33 -2.231,-25.138 -7.583,-35.509l-53.475,-92.476c-12.613,-21.805 -38.558,-44.659 -66.266,-44.659l-118.795,0c-27.717,-0.001 -52.09,20.186 -64.86,42.262Z"/></clipPath><g clip-path="url(#_clip2)"><path d="M191.726,282.518l66.556,0l-33.278,-57.507l-33.278,57.507Z" style="fill:#72cff5;fill-rule:nonzero;"/></g><clipPath id="_clip3"><path d="M100.548,94.62l-54.489,94.797c-5.347,10.375 -7.823,22.183 -7.582,35.5c-0.241,13.345 2.235,25.153 7.582,35.531l54.694,95.181c13.108,22.659 40.829,41.941 65.799,42.023l118.787,0c24.965,-0.082 50.905,-20.22 63.782,-42.482l54.823,-94.65c5.352,-10.379 7.818,-22.187 7.583,-35.518c0.235,-13.33 -2.231,-25.138 -7.583,-35.509l-53.475,-92.476c-12.613,-21.805 -38.558,-44.659 -66.266,-44.659l-118.795,0c-27.717,-0.001 -52.09,20.186 -64.86,42.262Z"/></clipPath><g clip-path="url(#_clip3)"><path d="M225.004,225.011l66.547,0l-33.269,-57.518l-33.278,57.518Z" style="fill:#72cff5;fill-rule:nonzero;"/></g><clipPath id="_clip4"><path d="M100.548,94.62l-54.489,94.797c-5.347,10.375 -7.823,22.183 -7.582,35.5c-0.241,13.345 2.235,25.153 7.582,35.531l54.694,95.181c13.108,22.659 40.829,41.941 65.799,42.023l118.787,0c24.965,-0.082 50.905,-20.22 63.782,-42.482l54.823,-94.65c5.352,-10.379 7.818,-22.187 7.583,-35.518c0.235,-13.33 -2.231,-25.138 -7.583,-35.509l-53.475,-92.476c-12.613,-21.805 -38.558,-44.659 -66.266,-44.659l-118.795,0c-27.717,-0.001 -52.09,20.186 -64.86,42.262Z"/></clipPath><g clip-path="url(#_clip4)"><path d="M158.449,225.011l66.555,0l-33.278,57.507l-33.277,-57.507Z" style="fill:#39c5f3;fill-rule:nonzero;"/></g><clipPath id="_clip5"><path d="M100.548,94.62l-54.489,94.797c-5.347,10.375 -7.823,22.183 -7.582,35.5c-0.241,13.345 2.235,25.153 7.582,35.531l54.694,95.181c13.108,22.659 40.829,41.941 65.799,42.023l118.787,0c24.965,-0.082 50.905,-20.22 63.782,-42.482l54.823,-94.65c5.352,-10.379 7.818,-22.187 7.583,-35.518c0.235,-13.33 -2.231,-25.138 -7.583,-35.509l-53.475,-92.476c-12.613,-21.805 -38.558,-44.659 -66.266,-44.659l-118.795,0c-27.717,-0.001 -52.09,20.186 -64.86,42.262Z"/></clipPath><g clip-path="url(#_clip5)"><path d="M224.995,225.011l66.556,0l-33.278,57.507l-33.278,-57.507Z" style="fill:#15bbee;fill-rule:nonzero;"/></g><clipPath id="_clip6"><path d="M100.548,94.62l-54.489,94.797c-5.347,10.375 -7.823,22.183 -7.582,35.5c-0.241,13.345 2.235,25.153 7.582,35.531l54.694,95.181c13.108,22.659 40.829,41.941 65.799,42.023l118.787,0c24.965,-0.082 50.905,-20.22 63.782,-42.482l54.823,-94.65c5.352,-10.379 7.818,-22.187 7.583,-35.518c0.235,-13.33 -2.231,-25.138 -7.583,-35.509l-53.475,-92.476c-12.613,-21.805 -38.558,-44.659 -66.266,-44.659l-118.795,0c-27.717,-0.001 -52.09,20.186 -64.86,42.262Z"/></clipPath><g clip-path="url(#_clip6)"><path d="M333.633,167.413c-1.993,1.705 -4.051,3.337 -6.167,4.889l-2.829,-4.889l8.996,0Z" style="fill:#39c5f3;"/></g><clipPath id="_clip7"><path d="M100.548,94.62l-54.489,94.797c-5.347,10.375 -7.823,22.183 -7.582,35.5c-0.241,13.345 2.235,25.153 7.582,35.531l54.694,95.181c13.108,22.659 40.829,41.941 65.799,42.023l118.787,0c24.965,-0.082 50.905,-20.22 63.782,-42.482l54.823,-94.65c5.352,-10.379 7.818,-22.187 7.583,-35.518c0.235,-13.33 -2.231,-25.138 -7.583,-35.509l-53.475,-92.476c-12.613,-21.805 -38.558,-44.659 -66.266,-44.659l-118.795,0c-27.717,-0.001 -52.09,20.186 -64.86,42.262Z"/></clipPath><g clip-path="url(#_clip7)"><path d="M319.706,224.934c-3.072,9.613 -7.11,19.057 -12.09,28.097l-16.256,-28.097l28.346,0Z" style="fill:#39c5f3;"/></g><clipPath id="_clip8"><path d="M100.548,94.62l-54.489,94.797c-5.347,10.375 -7.823,22.183 -7.582,35.5c-0.241,13.345 2.235,25.153 7.582,35.531l54.694,95.181c13.108,22.659 40.829,41.941 65.799,42.023l118.787,0c24.965,-0.082 50.905,-20.22 63.782,-42.482l54.823,-94.65c5.352,-10.379 7.818,-22.187 7.583,-35.518c0.235,-13.33 -2.231,-25.138 -7.583,-35.509l-53.475,-92.476c-12.613,-21.805 -38.558,-44.659 -66.266,-44.659l-118.795,0c-27.717,-0.001 -52.09,20.186 -64.86,42.262Z"/></clipPath><g clip-path="url(#_clip8)"><path d="M333.526,152.041c6.758,-1.52 13.269,-3.684 19.474,-6.436c-5.424,8.113 -11.953,15.465 -19.356,21.799l-9.007,0l8.889,-15.363Z" style="fill:#15bbee;"/></g><clipPath id="_clip9"><path d="M100.548,94.62l-54.489,94.797c-5.347,10.375 -7.823,22.183 -7.582,35.5c-0.241,13.345 2.235,25.153 7.582,35.531l54.694,95.181c13.108,22.659 40.829,41.941 65.799,42.023l118.787,0c24.965,-0.082 50.905,-20.22 63.782,-42.482l54.823,-94.65c5.352,-10.379 7.818,-22.187 7.583,-35.518c0.235,-13.33 -2.231,-25.138 -7.583,-35.509l-53.475,-92.476c-12.613,-21.805 -38.558,-44.659 -66.266,-44.659l-118.795,0c-27.717,-0.001 -52.09,20.186 -64.86,42.262Z"/></clipPath><g clip-path="url(#_clip9)"><path d="M327.466,172.302c-0.224,0.165 -0.448,0.329 -0.674,0.491c0.101,2.252 0.152,4.518 0.152,6.795c0,14.924 -2.443,30.34 -7.238,45.346l-28.346,0l33.277,-57.521l2.829,4.889Z" style="fill:#98daf8;"/></g><clipPath id="_clip10"><path d="M100.548,94.62l-54.489,94.797c-5.347,10.375 -7.823,22.183 -7.582,35.5c-0.241,13.345 2.235,25.153 7.582,35.531l54.694,95.181c13.108,22.659 40.829,41.941 65.799,42.023l118.787,0c24.965,-0.082 50.905,-20.22 63.782,-42.482l54.823,-94.65c5.352,-10.379 7.818,-22.187 7.583,-35.518c0.235,-13.33 -2.231,-25.138 -7.583,-35.509l-53.475,-92.476c-12.613,-21.805 -38.558,-44.659 -66.266,-44.659l-118.795,0c-27.717,-0.001 -52.09,20.186 -64.86,42.262Z"/></clipPath><g clip-path="url(#_clip10)"><path d="M307.691,252.894c-5.798,10.55 -12.878,20.55 -21.202,29.624l-28.207,0l33.274,-57.507l16.135,27.883Z" style="fill:#39c5f3;"/></g><clipPath id="_clip11"><path d="M100.548,94.62l-54.489,94.797c-5.347,10.375 -7.823,22.183 -7.582,35.5c-0.241,13.345 2.235,25.153 7.582,35.531l54.694,95.181c13.108,22.659 40.829,41.941 65.799,42.023l118.787,0c24.965,-0.082 50.905,-20.22 63.782,-42.482l54.823,-94.65c5.352,-10.379 7.818,-22.187 7.583,-35.518c0.235,-13.33 -2.231,-25.138 -7.583,-35.509l-53.475,-92.476c-12.613,-21.805 -38.558,-44.659 -66.266,-44.659l-118.795,0c-27.717,-0.001 -52.09,20.186 -64.86,42.262Z"/></clipPath><g clip-path="url(#_clip11)"><path d="M286.53,282.473c-5.63,6.142 -11.83,11.86 -18.589,17.038l-9.86,-17.039l28.449,0Z" style="fill:#15bbee;"/></g><clipPath id="_clip12"><path d="M100.548,94.62l-54.489,94.797c-5.347,10.375 -7.823,22.183 -7.582,35.5c-0.241,13.345 2.235,25.153 7.582,35.531l54.694,95.181c13.108,22.659 40.829,41.941 65.799,42.023l118.787,0c24.965,-0.082 50.905,-20.22 63.782,-42.482l54.823,-94.65c5.352,-10.379 7.818,-22.187 7.583,-35.518c0.235,-13.33 -2.231,-25.138 -7.583,-35.509l-53.475,-92.476c-12.613,-21.805 -38.558,-44.659 -66.266,-44.659l-118.795,0c-27.717,-0.001 -52.09,20.186 -64.86,42.262Z"/></clipPath><g clip-path="url(#_clip12)"><path d="M267.941,299.511c-8.97,6.873 -18.924,12.794 -29.834,17.49l19.974,-34.529l9.86,17.039Z" style="fill:#98daf8;"/></g><clipPath id="_clip13"><path d="M100.548,94.62l-54.489,94.797c-5.347,10.375 -7.823,22.183 -7.582,35.5c-0.241,13.345 2.235,25.153 7.582,35.531l54.694,95.181c13.108,22.659 40.829,41.941 65.799,42.023l118.787,0c24.965,-0.082 50.905,-20.22 63.782,-42.482l54.823,-94.65c5.352,-10.379 7.818,-22.187 7.583,-35.518c0.235,-13.33 -2.231,-25.138 -7.583,-35.509l-53.475,-92.476c-12.613,-21.805 -38.558,-44.659 -66.266,-44.659l-118.795,0c-27.717,-0.001 -52.09,20.186 -64.86,42.262Z"/></clipPath><g clip-path="url(#_clip13)"><path d="M238.103,317.002c-7.025,3.024 -14.448,5.54 -22.259,7.475l-24.309,-42.017l66.546,0l-19.978,34.542Z" style="fill:#39c5f3;"/></g><clipPath id="_clip14"><path d="M100.548,94.62l-54.489,94.797c-5.347,10.375 -7.823,22.183 -7.582,35.5c-0.241,13.345 2.235,25.153 7.582,35.531l54.694,95.181c13.108,22.659 40.829,41.941 65.799,42.023l118.787,0c24.965,-0.082 50.905,-20.22 63.782,-42.482l54.823,-94.65c5.352,-10.379 7.818,-22.187 7.583,-35.518c0.235,-13.33 -2.231,-25.138 -7.583,-35.509l-53.475,-92.476c-12.613,-21.805 -38.558,-44.659 -66.266,-44.659l-118.795,0c-27.717,-0.001 -52.09,20.186 -64.86,42.262Z"/></clipPath><g clip-path="url(#_clip14)"><path d="M215.842,324.478c-11.885,2.944 -24.67,4.545 -38.331,4.545c-4.248,0 -8.454,-0.179 -12.611,-0.528l26.635,-46.022l24.307,42.005Z" style="fill:#72cff5;"/></g><clipPath id="_clip15"><path d="M100.548,94.62l-54.489,94.797c-5.347,10.375 -7.823,22.183 -7.582,35.5c-0.241,13.345 2.235,25.153 7.582,35.531l54.694,95.181c13.108,22.659 40.829,41.941 65.799,42.023l118.787,0c24.965,-0.082 50.905,-20.22 63.782,-42.482l54.823,-94.65c5.352,-10.379 7.818,-22.187 7.583,-35.518c0.235,-13.33 -2.231,-25.138 -7.583,-35.509l-53.475,-92.476c-12.613,-21.805 -38.558,-44.659 -66.266,-44.659l-118.795,0c-27.717,-0.001 -52.09,20.186 -64.86,42.262Z"/></clipPath><g clip-path="url(#_clip15)"><path d="M164.901,328.495c-4.873,-0.41 -9.679,-1.054 -14.407,-1.922l-13.837,-23.922c14.061,-3.717 26.975,-10.256 38.1,-18.974c-3.526,-0.065 -6.967,-0.477 -10.291,-1.204l27.069,0l-26.634,46.022Z" style="fill:#15bbee;"/></g><clipPath id="_clip16"><path d="M100.548,94.62l-54.489,94.797c-5.347,10.375 -7.823,22.183 -7.582,35.5c-0.241,13.345 2.235,25.153 7.582,35.531l54.694,95.181c13.108,22.659 40.829,41.941 65.799,42.023l118.787,0c24.965,-0.082 50.905,-20.22 63.782,-42.482l54.823,-94.65c5.352,-10.379 7.818,-22.187 7.583,-35.518c0.235,-13.33 -2.231,-25.138 -7.583,-35.509l-53.475,-92.476c-12.613,-21.805 -38.558,-44.659 -66.266,-44.659l-118.795,0c-27.717,-0.001 -52.09,20.186 -64.86,42.262Z"/></clipPath><g clip-path="url(#_clip16)"><path d="M136.657,302.651l13.837,23.922c-15.08,-2.768 -29.365,-7.808 -42.5,-14.737l3.292,-5.691c8.757,-0.142 17.255,-1.348 25.371,-3.494Z" style="fill:#98daf8;"/></g><clipPath id="_clip17"><path d="M100.548,94.62l-54.489,94.797c-5.347,10.375 -7.823,22.183 -7.582,35.5c-0.241,13.345 2.235,25.153 7.582,35.531l54.694,95.181c13.108,22.659 40.829,41.941 65.799,42.023l118.787,0c24.965,-0.082 50.905,-20.22 63.782,-42.482l54.823,-94.65c5.352,-10.379 7.818,-22.187 7.583,-35.518c0.235,-13.33 -2.231,-25.138 -7.583,-35.509l-53.475,-92.476c-12.613,-21.805 -38.558,-44.659 -66.266,-44.659l-118.795,0c-27.717,-0.001 -52.09,20.186 -64.86,42.262Z"/></clipPath><g clip-path="url(#_clip17)"><path d="M107.987,311.832c-3.759,-1.983 -7.425,-4.121 -10.987,-6.405c4.109,0.485 8.29,0.733 12.529,0.733c0.583,0 1.166,-0.005 1.747,-0.014l-3.289,5.686Z" style="fill:#39c5f3;"/></g><clipPath id="_clip18"><path d="M100.548,94.62l-54.489,94.797c-5.347,10.375 -7.823,22.183 -7.582,35.5c-0.241,13.345 2.235,25.153 7.582,35.531l54.694,95.181c13.108,22.659 40.829,41.941 65.799,42.023l118.787,0c24.965,-0.082 50.905,-20.22 63.782,-42.482l54.823,-94.65c5.352,-10.379 7.818,-22.187 7.583,-35.518c0.235,-13.33 -2.231,-25.138 -7.583,-35.509l-53.475,-92.476c-12.613,-21.805 -38.558,-44.659 -66.266,-44.659l-118.795,0c-27.717,-0.001 -52.09,20.186 -64.86,42.262Z"/></clipPath><g clip-path="url(#_clip18)"><path d="M146.532,245.638l11.934,-20.627l33.274,57.507l-27.066,0c-11.651,-2.499 -21.873,-8.86 -29.253,-17.678l10.218,-17.659c1.275,-0.248 2.534,-0.541 3.775,-0.879c-0.971,-0.195 -1.932,-0.417 -2.882,-0.664Z" style="fill:#72cff5;"/></g><clipPath id="_clip19"><path d="M100.548,94.62l-54.489,94.797c-5.347,10.375 -7.823,22.183 -7.582,35.5c-0.241,13.345 2.235,25.153 7.582,35.531l54.694,95.181c13.108,22.659 40.829,41.941 65.799,42.023l118.787,0c24.965,-0.082 50.905,-20.22 63.782,-42.482l54.823,-94.65c5.352,-10.379 7.818,-22.187 7.583,-35.518c0.235,-13.33 -2.231,-25.138 -7.583,-35.509l-53.475,-92.476c-12.613,-21.805 -38.558,-44.659 -66.266,-44.659l-118.795,0c-27.717,-0.001 -52.09,20.186 -64.86,42.262Z"/></clipPath><g clip-path="url(#_clip19)"><path d="M135.272,264.662c-4.228,-5.098 -7.511,-11.007 -9.577,-17.46c3.206,0.613 6.496,0.942 9.881,0.942c3.342,0 6.611,-0.312 9.779,-0.909l-10.083,17.427Zm11.04,-19.082c-12.116,-3.213 -22.515,-10.649 -29.525,-20.637l41.465,0l-11.94,20.637Z" style="fill:#39c5f3;"/></g><clipPath id="_clip20"><path d="M100.548,94.62l-54.489,94.797c-5.347,10.375 -7.823,22.183 -7.582,35.5c-0.241,13.345 2.235,25.153 7.582,35.531l54.694,95.181c13.108,22.659 40.829,41.941 65.799,42.023l118.787,0c24.965,-0.082 50.905,-20.22 63.782,-42.482l54.823,-94.65c5.352,-10.379 7.818,-22.187 7.583,-35.518c0.235,-13.33 -2.231,-25.138 -7.583,-35.509l-53.475,-92.476c-12.613,-21.805 -38.558,-44.659 -66.266,-44.659l-118.795,0c-27.717,-0.001 -52.09,20.186 -64.86,42.262Z"/></clipPath><g clip-path="url(#_clip20)"><path d="M115.276,184.184l9.699,-16.767l33.277,57.517l-41.472,0c-5.438,-7.752 -8.835,-17.039 -9.41,-27.081l1.622,-2.804c6.665,3.389 14.158,5.411 22.084,5.662c-6.399,-4.277 -11.805,-9.927 -15.8,-16.527Z" style="fill:#98daf8;"/></g><clipPath id="_clip21"><path d="M100.548,94.62l-54.489,94.797c-5.347,10.375 -7.823,22.183 -7.582,35.5c-0.241,13.345 2.235,25.153 7.582,35.531l54.694,95.181c13.108,22.659 40.829,41.941 65.799,42.023l118.787,0c24.965,-0.082 50.905,-20.22 63.782,-42.482l54.823,-94.65c5.352,-10.379 7.818,-22.187 7.583,-35.518c0.235,-13.33 -2.231,-25.138 -7.583,-35.509l-53.475,-92.476c-12.613,-21.805 -38.558,-44.659 -66.266,-44.659l-118.795,0c-27.717,-0.001 -52.09,20.186 -64.86,42.262Z"/></clipPath><g clip-path="url(#_clip21)"><path d="M107.37,197.862c-0.058,-1.013 -0.087,-2.033 -0.087,-3.06c0,-0.221 0,-0.441 0.003,-0.66c0.564,0.313 1.134,0.616 1.71,0.909l-1.626,2.811Zm7.909,-13.673c-3.08,-5.088 -5.322,-10.74 -6.534,-16.763l16.23,0l-9.696,16.763Z" style="fill:#72cff5;"/></g><clipPath id="_clip22"><path d="M100.548,94.62l-54.489,94.797c-5.347,10.375 -7.823,22.183 -7.582,35.5c-0.241,13.345 2.235,25.153 7.582,35.531l54.694,95.181c13.108,22.659 40.829,41.941 65.799,42.023l118.787,0c24.965,-0.082 50.905,-20.22 63.782,-42.482l54.823,-94.65c5.352,-10.379 7.818,-22.187 7.583,-35.518c0.235,-13.33 -2.231,-25.138 -7.583,-35.509l-53.475,-92.476c-12.613,-21.805 -38.558,-44.659 -66.266,-44.659l-118.795,0c-27.717,-0.001 -52.09,20.186 -64.86,42.262Z"/></clipPath><g clip-path="url(#_clip22)"><path d="M124.975,167.404l-16.234,0c-0.676,-3.365 -1.031,-6.846 -1.031,-10.408c0,-5.376 0.808,-10.563 2.309,-15.447l14.956,25.855Z" style="fill:#98daf8;"/></g><clipPath id="_clip23"><path d="M100.548,94.62l-54.489,94.797c-5.347,10.375 -7.823,22.183 -7.582,35.5c-0.241,13.345 2.235,25.153 7.582,35.531l54.694,95.181c13.108,22.659 40.829,41.941 65.799,42.023l118.787,0c24.965,-0.082 50.905,-20.22 63.782,-42.482l54.823,-94.65c5.352,-10.379 7.818,-22.187 7.583,-35.518c0.235,-13.33 -2.231,-25.138 -7.583,-35.509l-53.475,-92.476c-12.613,-21.805 -38.558,-44.659 -66.266,-44.659l-118.795,0c-27.717,-0.001 -52.09,20.186 -64.86,42.262Z"/></clipPath><g clip-path="url(#_clip23)"><path d="M110.021,141.543c1.186,-3.859 2.805,-7.529 4.8,-10.952c5.962,7.313 12.601,14.05 19.822,20.115l-9.659,16.697l-14.963,-25.86Z" style="fill:#72cff5;"/></g><clipPath id="_clip24"><path d="M100.548,94.62l-54.489,94.797c-5.347,10.375 -7.823,22.183 -7.582,35.5c-0.241,13.345 2.235,25.153 7.582,35.531l54.694,95.181c13.108,22.659 40.829,41.941 65.799,42.023l118.787,0c24.965,-0.082 50.905,-20.22 63.782,-42.482l54.823,-94.65c5.352,-10.379 7.818,-22.187 7.583,-35.518c0.235,-13.33 -2.231,-25.138 -7.583,-35.509l-53.475,-92.476c-12.613,-21.805 -38.558,-44.659 -66.266,-44.659l-118.795,0c-27.717,-0.001 -52.09,20.186 -64.86,42.262Z"/></clipPath><g clip-path="url(#_clip24)"><path d="M134.64,150.704c7.539,6.333 15.712,11.935 24.411,16.696l-34.067,0l9.656,-16.696Z" style="fill:#39c5f3;"/></g><clipPath id="_clip25"><path d="M100.548,94.62l-54.489,94.797c-5.347,10.375 -7.823,22.183 -7.582,35.5c-0.241,13.345 2.235,25.153 7.582,35.531l54.694,95.181c13.108,22.659 40.829,41.941 65.799,42.023l118.787,0c24.965,-0.082 50.905,-20.22 63.782,-42.482l54.823,-94.65c5.352,-10.379 7.818,-22.187 7.583,-35.518c0.235,-13.33 -2.231,-25.138 -7.583,-35.509l-53.475,-92.476c-12.613,-21.805 -38.558,-44.659 -66.266,-44.659l-118.795,0c-27.717,-0.001 -52.09,20.186 -64.86,42.262Z"/></clipPath><g clip-path="url(#_clip25)"><path d="M159.074,167.413c8.229,4.501 16.928,8.251 26.005,11.157l-26.827,46.356l-33.268,-57.513l34.09,0Z" style="fill:#15bbee;"/></g><clipPath id="_clip26"><path d="M100.548,94.62l-54.489,94.797c-5.347,10.375 -7.823,22.183 -7.582,35.5c-0.241,13.345 2.235,25.153 7.582,35.531l54.694,95.181c13.108,22.659 40.829,41.941 65.799,42.023l118.787,0c24.965,-0.082 50.905,-20.22 63.782,-42.482l54.823,-94.65c5.352,-10.379 7.818,-22.187 7.583,-35.518c0.235,-13.33 -2.231,-25.138 -7.583,-35.509l-53.475,-92.476c-12.613,-21.805 -38.558,-44.659 -66.266,-44.659l-118.795,0c-27.717,-0.001 -52.09,20.186 -64.86,42.262Z"/></clipPath><g clip-path="url(#_clip26)"><path d="M185.278,178.633c4.956,1.579 10.026,2.907 15.193,3.968l24.533,42.399l-66.555,0l26.829,-46.367Z" style="fill:#98daf8;"/></g><clipPath id="_clip27"><path d="M100.548,94.62l-54.489,94.797c-5.347,10.375 -7.823,22.183 -7.582,35.5c-0.241,13.345 2.235,25.153 7.582,35.531l54.694,95.181c13.108,22.659 40.829,41.941 65.799,42.023l118.787,0c24.965,-0.082 50.905,-20.22 63.782,-42.482l54.823,-94.65c5.352,-10.379 7.818,-22.187 7.583,-35.518c0.235,-13.33 -2.231,-25.138 -7.583,-35.509l-53.475,-92.476c-12.613,-21.805 -38.558,-44.659 -66.266,-44.659l-118.795,0c-27.717,-0.001 -52.09,20.186 -64.86,42.262Z"/></clipPath><g clip-path="url(#_clip27)"><path d="M222.056,167.493l36.226,0l-33.278,57.507l-24.535,-42.4c7.353,1.51 14.903,2.48 22.608,2.866c-0.896,-3.843 -1.361,-7.852 -1.361,-11.968c0,-2.031 0.115,-4.035 0.34,-6.005Z" style="fill:#15bbee;"/></g><clipPath id="_clip28"><path d="M100.548,94.62l-54.489,94.797c-5.347,10.375 -7.823,22.183 -7.582,35.5c-0.241,13.345 2.235,25.153 7.582,35.531l54.694,95.181c13.108,22.659 40.829,41.941 65.799,42.023l118.787,0c24.965,-0.082 50.905,-20.22 63.782,-42.482l54.823,-94.65c5.352,-10.379 7.818,-22.187 7.583,-35.518c0.235,-13.33 -2.231,-25.138 -7.583,-35.509l-53.475,-92.476c-12.613,-21.805 -38.558,-44.659 -66.266,-44.659l-118.795,0c-27.717,-0.001 -52.09,20.186 -64.86,42.262Z"/></clipPath><g clip-path="url(#_clip28)"><path d="M258.282,167.4l-36.215,0c1.51,-13.066 7.817,-24.671 17.114,-33.01l19.101,33.01Z" style="fill:#39c5f3;"/></g><clipPath id="_clip29"><path d="M100.548,94.62l-54.489,94.797c-5.347,10.375 -7.823,22.183 -7.582,35.5c-0.241,13.345 2.235,25.153 7.582,35.531l54.694,95.181c13.108,22.659 40.829,41.941 65.799,42.023l118.787,0c24.965,-0.082 50.905,-20.22 63.782,-42.482l54.823,-94.65c5.352,-10.379 7.818,-22.187 7.583,-35.518c0.235,-13.33 -2.231,-25.138 -7.583,-35.509l-53.475,-92.476c-12.613,-21.805 -38.558,-44.659 -66.266,-44.659l-118.795,0c-27.717,-0.001 -52.09,20.186 -64.86,42.262Z"/></clipPath><g clip-path="url(#_clip29)"><path d="M239.052,134.506c9.312,-8.409 21.652,-13.529 35.187,-13.529c3.468,0 6.858,0.336 10.141,0.978l-26.299,45.449l-19.029,-32.898Z" style="fill:#15bbee;"/></g><clipPath id="_clip30"><path d="M100.548,94.62l-54.489,94.797c-5.347,10.375 -7.823,22.183 -7.582,35.5c-0.241,13.345 2.235,25.153 7.582,35.531l54.694,95.181c13.108,22.659 40.829,41.941 65.799,42.023l118.787,0c24.965,-0.082 50.905,-20.22 63.782,-42.482l54.823,-94.65c5.352,-10.379 7.818,-22.187 7.583,-35.518c0.235,-13.33 -2.231,-25.138 -7.583,-35.509l-53.475,-92.476c-12.613,-21.805 -38.558,-44.659 -66.266,-44.659l-118.795,0c-27.717,-0.001 -52.09,20.186 -64.86,42.262Z"/></clipPath><g clip-path="url(#_clip30)"><path d="M302.564,129.246c3.677,2.353 7.04,5.151 10.012,8.318c11.963,-2.356 23.204,-6.728 33.351,-12.746c-3.921,12.264 -12.248,22.557 -23.093,29.057c3.623,-0.433 7.188,-1.046 10.686,-1.833l-8.883,15.358l-22.073,-38.154Z" style="fill:#72cff5;"/></g><clipPath id="_clip31"><path d="M100.548,94.62l-54.489,94.797c-5.347,10.375 -7.823,22.183 -7.582,35.5c-0.241,13.345 2.235,25.153 7.582,35.531l54.694,95.181c13.108,22.659 40.829,41.941 65.799,42.023l118.787,0c24.965,-0.082 50.905,-20.22 63.782,-42.482l54.823,-94.65c5.352,-10.379 7.818,-22.187 7.583,-35.518c0.235,-13.33 -2.231,-25.138 -7.583,-35.509l-53.475,-92.476c-12.613,-21.805 -38.558,-44.659 -66.266,-44.659l-118.795,0c-27.717,-0.001 -52.09,20.186 -64.86,42.262Z"/></clipPath><g clip-path="url(#_clip31)"><path d="M284.372,121.953c6.587,1.286 12.737,3.801 18.197,7.296l22.068,38.151l-66.556,0l26.291,-45.447Z" style="fill:#39c5f3;"/></g></g></g></svg>